# xmcd
#
# Track frame offsets: 
#        150
#        3273
#        20324
#        39828
#        46171
#        67478
#        86359
#        100341
#        120397
#        125573
#        138083
#        170731
#        181906
#        199835
#
# Disc length: 3250 seconds
#
# Revision: 0
# Processed by: cddbd v1.5.2PL0 Copyright (c) Steve Scherf et al.
# Submitted via: ExactAudioCopy v0.95b4
#
DISCID=b30cb00e
DTITLE=Retro Stefson - kimbabwe
DYEAR=2011
DGENRE=Funk
TTITLE0=Intro
TTITLE1=Planetarium
TTITLE2=Mama Angola
TTITLE3=Lomax
TTITLE4=Kimba
TTITLE5=Rome, Iowa
TTITLE6=Fjallatenór
TTITLE7=Eusebio
TTITLE8=Lomax II
TTITLE9=Low
TTITLE10=Karamba
TTITLE11=Medallion
TTITLE12=Papa Paulo III (re-edit)
TTITLE13=Senseni
EXTD=
EXTT0=
EXTT1=
EXTT2=
EXTT3=
EXTT4=
EXTT5=
EXTT6=
EXTT7=
EXTT8=
EXTT9=
EXTT10=
EXTT11=
EXTT12=
EXTT13=
PLAYORDER=
